PathFileType	4	(X/Y/Z)	C:\Users\Biomechanik\SynologyDrive\AlexP\Athlete_03\Athlete_3_22_07_06\sq_75_EMG\marker_experimental.trc
DataRate	CameraRate	NumFrames	NumMarkers	Units	OrigDataRate	OrigDataStartFrame	OrigNumFrames
200.000000	200.000000	4	58	mm	200.000000	982	1310
Frame#	Time	BL			BR			Athlete_3_RUA2_Opt:GLAB			Athlete_3_RUA2_Opt:RFHD			Athlete_3_RUA2_Opt:LFHD			Athlete_3_RUA2_Opt:C7			Athlete_3_RUA2_Opt:T6			Athlete_3_RUA2_Opt:SPINMOL			Athlete_3_RUA2_Opt:SPINM2			Athlete_3_RUA2_Opt:SPINM3			Athlete_3_RUA2_Opt:T12			Athlete_3_RUA2_Opt:BELTOL			Athlete_3_RUA2_Opt:BELT2			Athlete_3_RUA2_Opt:BELT3			Athlete_3_RUA2_Opt:SACROL			Athlete_3_RUA2_Opt:SACR2			Athlete_3_RUA2_Opt:SACR3			Athlete_3_RUA2_Opt:LTHOL			Athlete_3_RUA2_Opt:LTH2			Athlete_3_RUA2_Opt:LTH3			Athlete_3_RUA2_Opt:LSHAOL			Athlete_3_RUA2_Opt:LSHA2			Athlete_3_RUA2_Opt:LSHA3			Athlete_3_RUA2_Opt:LHEE			Athlete_3_RUA2_Opt:LTOE			Athlete_3_RUA2_Opt:LM5			Athlete_3_RUA2_Opt:RTHOL			Athlete_3_RUA2_Opt:RTH2			Athlete_3_RUA2_Opt:RTH3			Athlete_3_RUA2_Opt:RSHAOL			Athlete_3_RUA2_Opt:RSHA2			Athlete_3_RUA2_Opt:RSHA3			Athlete_3_RUA2_Opt:RHEE			Athlete_3_RUA2_Opt:RTOE			Athlete_3_RUA2_Opt:RM5			Athlete_3_RUA2_Opt:STRN			Athlete_3_RUA2_Opt:XIPH			Athlete_3_RUA2_Opt:LACR			Athlete_3_RUA2_Opt:LUAOL			Athlete_3_RUA2_Opt:LUA2			Athlete_3_RUA2_Opt:LUA3			Athlete_3_RUA2_Opt:LLAOL			Athlete_3_RUA2_Opt:LLA2			Athlete_3_RUA2_Opt:LLA3			Athlete_3_RUA2_Opt:LWRU			Athlete_3_RUA2_Opt:RACR			Athlete_3_RUA2_Opt:RUAOL			Athlete_3_RUA2_Opt:RUA3			Athlete_3_RUA2_Opt:RLAOL			Athlete_3_RUA2_Opt:RLA2			Athlete_3_RUA2_Opt:RLA3			Athlete_3_RUA2_Opt:RWRU			USERMO0			USERMO1			USERMO2			USERMO3			USERMO4			USERMO5			
		X1	Y1	Z1	X2	Y2	Z2	X3	Y3	Z3	X4	Y4	Z4	X5	Y5	Z5	X6	Y6	Z6	X7	Y7	Z7	X8	Y8	Z8	X9	Y9	Z9	X10	Y10	Z10	X11	Y11	Z11	X12	Y12	Z12	X13	Y13	Z13	X14	Y14	Z14	X15	Y15	Z15	X16	Y16	Z16	X17	Y17	Z17	X18	Y18	Z18	X19	Y19	Z19	X20	Y20	Z20	X21	Y21	Z21	X22	Y22	Z22	X23	Y23	Z23	X24	Y24	Z24	X25	Y25	Z25	X26	Y26	Z26	X27	Y27	Z27	X28	Y28	Z28	X29	Y29	Z29	X30	Y30	Z30	X31	Y31	Z31	X32	Y32	Z32	X33	Y33	Z33	X34	Y34	Z34	X35	Y35	Z35	X36	Y36	Z36	X37	Y37	Z37	X38	Y38	Z38	X39	Y39	Z39	X40	Y40	Z40	X41	Y41	Z41	X42	Y42	Z42	X43	Y43	Z43	X44	Y44	Z44	X45	Y45	Z45	X46	Y46	Z46	X47	Y47	Z47	X48	Y48	Z48	X49	Y49	Z49	X50	Y50	Z50	X51	Y51	Z51	X52	Y52	Z52	X53	Y53	Z53	X54	Y54	Z54	X55	Y55	Z55	X56	Y56	Z56	X57	Y57	Z57	X58	Y58	Z58	

983	4.91	93.40553283691406	936.5707397460939	-2222.46435546875	298.8281555175781	892.8681640625	-10.41779327392573	529.863037109375	1065.67822265625	-1128.852905273438	469.8897094726562	1082.294677734375	-1051.205688476562	467.0106811523438	1079.357421875	-1209.38330078125	296.7156982421875	999.5320434570314	-1116.423461914062	136.7481689453125	904.1227416992189	-1113.393432617188	114.7020721435547	889.5760498046876	-1120.844360351562	67.33695983886719	853.2501220703126	-1067.9814453125	73.06600952148438	843.9017333984376	-1116.654418945312	51.01269149780273	818.5174560546876	-1114.578491210938	15.61778926849365	829.3159790039064	-1112.350219726562	-29.26266479492188	792.0496215820314	-1057.762451171875	-36.59506988525391	795.7689819335939	-1107.277954101562	-102.3347091674805	738.7599487304689	-1131.587158203125	-86.60284423828125	741.8889770507814	-1083.057739257812	-142.6024475097656	707.0913085937501	-1089.809936523438	13.52905464172363	600.8748779296876	-1387.027709960938	23.97312164306641	527.5316162109376	-1417.143188476562	55.52536010742188	566.4282226562501	-1417.243530273438	153.7700347900391	320.9825744628907	-1543.908203125	108.2532272338867	256.6105957031251	-1538.57275390625	156.0120391845703	259.532684326172	-1552.336547851562	71.07491302490234	40.44771575927744	-1482.739868164062	268.0463562011719	49.01499938964853	-1548.022827148438	197.4702606201172	23.27599334716807	-1635.611328125	42.88030242919922	568.6216430664062	-835.3604736328125	116.9093475341797	578.6477661132812	-807.7454223632812	87.36463165283203	538.2646484375	-804.2532348632812	146.2830810546875	316.1547851562501	-716.066162109375	172.8609466552734	243.4690856933594	-700.0130004882812	128.8057708740234	257.1138916015626	-719.935791015625	66.31028747558594	42.09934616088872	-789.7174072265625	258.6604309082031	45.76992034912114	-710.6393432617188	188.5384368896484	36.01347732543949	-625.7864379882812	361.3633117675781	836.9196777343751	-1138.096435546875	295.8965148925781	685.3970947265626	-1134.815673828125	247.2454833984375	944.0213012695314	-1311.680908203125	97.56513214111328	885.1723632812501	-1337.246948242188	53.9638786315918	851.5897827148439	-1300.315063476562	56.86686325073242	847.8751220703126	-1350.2890625	34.55644226074219	819.4711303710939	-1426.630249023438	82.38450622558594	829.6021728515626	-1469.645385742188	82.95761108398438	861.1098632812501	-1430.782104492188	137.9664154052734	897.0789184570314	-1477.562377929688	289.2302856445312	936.3661499023439	-938.8788452148436	156.2955017089844	847.0443725585938	-880.1616821289062	97.61960601806641	831.7958984375	-871.3884887695312	114.1783752441406	816.4522705078125	-795.1276245117188	163.4495239257812	856.4403076171875	-807.8599243164062	161.9349822998047	839.1021728515625	-759.8239135742188	200.6870422363281	875.4431762695312	-746.1741333007812	0.4065139889717102	0.07338509708642962	-0.5259960293769836	0.08109969645738602	0.1191510036587715	-0.2152229994535446	0.05987619981169701	0.02165750041604042	-0.06852850317955017	0.03857250139117241	0.2002229988574982	-0.8431879878044128	0.3302049934864044	2.990070104598999	-0.3699980080127714	2.704790115356445	0	0	
984	4.915	92.96865844726562	938.6487426757814	-2222.437744140625	298.6091918945312	895.0548706054688	-10.40322780609125	529.4474487304688	1067.977661132812	-1128.912353515625	469.4697265625	1084.5673828125	-1051.257690429688	466.5692443847656	1081.605224609375	-1209.441650390625	296.3419189453125	1001.668090820313	-1116.438598632812	136.4253234863281	906.1768798828126	-1113.35400390625	114.3738021850586	891.6149902343751	-1120.79345703125	67.05815124511719	855.2531738281251	-1067.911987304688	72.77671051025391	845.9061279296876	-1116.585327148438	50.69129180908203	820.4753417968751	-1114.470336914062	15.2958402633667	831.2506103515626	-1112.217651367188	-29.57312202453613	793.9559326171876	-1057.640258789062	-36.90843200683594	797.6911621093751	-1107.154052734375	-102.5702438354492	740.8199462890626	-1131.478759765625	-86.81704711914062	743.9027709960939	-1082.953369140625	-142.8443756103516	709.1484985351564	-1089.7099609375	13.27169418334961	602.1887207031251	-1387.033569335938	23.44055557250977	528.7593383789064	-1417.036743164062	55.13678359985352	567.5455932617189	-1417.206787109375	153.2047882080078	321.0982666015626	-1543.857543945312	107.8176422119141	256.6227416992189	-1538.578247070312	155.5859985351562	259.6550598144532	-1552.302978515625	71.03806304931641	40.42023086547861	-1482.806518554688	268.0235900878906	49.03135681152353	-1548.09375	197.4394378662109	23.27225685119639	-1635.651733398438	42.53170013427734	569.7717895507812	-835.30517578125	116.5811614990234	579.4728393554688	-807.6549682617188	86.87933349609375	539.1952514648438	-804.2468872070312	145.7127685546875	316.2409362792969	-716.0454711914062	172.4649200439453	243.6134490966797	-700.0106811523438	128.3539276123047	257.1656494140626	-719.8777465820312	66.24422454833984	42.0581550598145	-789.6544799804688	258.6476745605469	45.79707717895512	-710.6104736328125	188.5281829833984	35.99729537963871	-625.761474609375	361.0619812011719	839.0988159179689	-1138.103271484375	295.6004638671875	687.5497436523439	-1134.802490234375	246.8604888916016	946.1270751953126	-1311.67626953125	97.20254516601562	887.1958618164064	-1337.179931640625	53.65027236938477	853.5737915039064	-1300.235229492188	56.52589797973633	849.8704223632814	-1350.212524414062	34.19764709472656	821.4915771484376	-1426.541259765625	81.99693298339844	831.6513671875001	-1469.582397460938	82.57651519775391	863.1543579101564	-1430.715576171875	137.5668487548828	899.1510620117189	-1477.533569335938	288.8946228027344	938.5009765625001	-938.8743286132811	156.0786590576172	849.0427856445312	-880.1271362304688	97.41422271728516	833.7448120117188	-871.327392578125	113.957275390625	818.4144287109375	-795.0853271484375	163.1857147216797	858.4598388671875	-807.8323364257812	161.6919250488281	841.1229248046875	-759.791259765625	200.3961639404297	877.5328369140625	-746.1522827148438	0.3958429992198944	0.07399500161409381	-0.5390880107879639	0.08151700347661972	0.1250980049371719	-0.210327997803688	0.06070290133357048	0.0210133008658886	-0.06926490366458893	0.03909390047192574	0.2027820050716401	-0.8387460112571716	0.3318510055541992	2.991300106048584	-0.3696280121803282	2.712850093841553	0	0	
985	4.92	92.53083038330078	940.7274780273439	-2222.41455078125	298.3844604492188	897.2454833984375	-10.39097881317133	529.0305786132812	1070.284912109375	-1128.987915039062	469.0514831542969	1086.850219726562	-1051.323364257812	466.1214294433594	1083.846069335938	-1209.513427734375	295.9723815917969	1003.796875	-1116.451171875	136.1092681884766	908.2190551757814	-1113.311279296875	114.0521392822266	893.6422119140626	-1120.73876953125	66.78801727294922	857.2433471679689	-1067.838012695312	72.49613952636719	847.8975830078126	-1116.511596679688	50.37764739990234	822.4146728515626	-1114.358032226562	14.98142242431641	833.1681518554689	-1112.078857421875	-29.87321281433105	795.8414916992189	-1057.51171875	-37.21179962158203	799.5924682617189	-1107.02392578125	-102.794189453125	742.8516845703126	-1131.3603515625	-87.01898193359375	745.8855590820314	-1082.839233398438	-143.0708923339844	711.1696777343751	-1089.601928710938	13.02452373504639	603.4836425781251	-1387.037475585938	22.91869735717773	529.9707641601564	-1416.932250976562	54.75703430175781	568.6480712890626	-1417.173217773438	152.6409301757812	321.2125549316407	-1543.8125	107.383186340332	256.6349487304689	-1538.581909179688	155.1588745117188	259.7759399414064	-1552.273193359375	71.00579833984375	40.39215469360361	-1482.87255859375	267.9985961914062	49.04797363281259	-1548.175537109375	197.4023284912109	23.26972961425791	-1635.69873046875	42.20322036743164	570.901123046875	-835.2470092773438	116.2707595825195	580.2796020507812	-807.5613403320312	86.41771697998047	540.1058349609375	-804.2406005859375	145.15771484375	316.3270874023438	-716.0244750976562	172.0791931152344	243.7564239501954	-700.0084228515625	127.9145355224609	257.2188110351563	-719.8212890625	66.18134307861328	42.01981735229497	-789.5927734375	258.6364440917969	45.82531356811528	-710.5794677734375	188.5178985595703	35.9810943603516	-625.7361450195312	360.7698364257812	841.2729492187501	-1138.106567382812	295.3203735351562	689.6940917968751	-1134.781616210938	246.4844970703125	948.2209472656251	-1311.671630859375	96.84387969970703	889.2097167968751	-1337.107055664062	53.34536743164062	855.5449829101564	-1300.148803710938	56.19102096557617	851.8553466796876	-1350.130493164062	33.84358596801758	823.5040893554689	-1426.450317382812	81.61250305175781	833.6917724609376	-1469.518310546875	82.20005035400391	865.1905517578126	-1430.648193359375	137.1703796386719	901.2147216796876	-1477.506225585938	288.5621643066406	940.6306762695314	-938.8690795898436	155.8714294433594	851.0305786132812	-880.0922241210938	97.21562194824219	835.6768798828125	-871.2687377929688	113.7455978393555	820.3643798828125	-795.0455322265625	162.9299621582031	860.4691162109375	-807.8085327148438	161.4562225341797	843.1363525390625	-759.759521484375	200.1094055175781	879.6162109375	-746.132568359375	0.3857449889183044	0.07445459812879565	-0.5513200163841248	0.08223369717597961	0.1314789950847626	-0.2046609967947006	0.0620230995118618	0.0204693004488945	-0.07031349837779999	0.03945289924740791	0.2054259926080704	-0.8349469900131226	0.3340229988098145	2.992419958114624	-0.3695360124111174	2.720370054244995	0	0	
986	4.925	92.09170532226562	942.8049926757814	-2222.39501953125	298.1539306640625	899.4380493164062	-10.38118743896479	528.6143188476562	1072.59912109375	-1129.079223632812	468.6376647949219	1089.142578125	-1051.40185546875	465.6690673828125	1086.080078125	-1209.597534179688	295.6090698242188	1005.919738769531	-1116.459350585938	135.8003082275391	910.2516479492189	-1113.26611328125	113.7371368408203	895.6599731445314	-1120.681518554688	66.52635192871094	859.2222290039064	-1067.76123046875	72.22467803955078	849.8776855468751	-1116.43505859375	50.07233047485352	824.3383789062501	-1114.241577148438	14.67437839508057	835.0695190429689	-1111.935180664062	-30.16329002380371	797.7071533203126	-1057.37841796875	-37.50540161132812	801.4736328125001	-1106.88916015625	-103.0059814453125	744.8555297851564	-1131.233642578125	-87.20843505859375	747.8383789062501	-1082.716430664062	-143.2816925048828	713.1558227539064	-1089.48681640625	12.78854846954346	604.7596435546876	-1387.040649414062	22.40852928161621	531.1658935546876	-1416.830444335938	54.38710021972656	569.7356567382814	-1417.143432617188	152.0790100097656	321.3254394531251	-1543.772827148438	106.9501953125	256.6474914550782	-1538.58349609375	154.7307586669922	259.8952941894532	-1552.247314453125	70.97743988037109	40.36346435546884	-1482.937744140625	267.9710998535156	49.06482315063486	-1548.268310546875	197.3584594726562	23.26855850219737	-1635.75244140625	41.89468383789062	572.0106201171875	-835.1863403320312	115.9783935546875	581.0689697265625	-807.4645385742188	85.97917938232422	540.9973754882812	-804.2343139648438	144.6178283691406	316.4130554199219	-716.0040283203125	171.7034301757812	243.8979187011719	-700.00634765625	127.4873046875	257.2729797363282	-719.7667236328125	66.12174224853516	41.98421478271489	-789.53271484375	258.6268920898438	45.85445404052739	-710.5465087890625	188.5079956054688	35.96513748168949	-625.7106323242188	360.4871520996094	843.4428710937501	-1138.106079101562	295.0559692382812	691.8313598632814	-1134.75341796875	246.1180572509766	950.3050537109376	-1311.666259765625	96.48957824707031	891.2155151367189	-1337.029174804688	53.04958343505859	857.5051269531251	-1300.056640625	55.86331176757812	853.8311767578126	-1350.043334960938	33.49568176269531	825.5089721679689	-1426.357421875	81.232666015625	835.7239990234376	-1469.453369140625	81.82950592041016	867.2189941406251	-1430.580200195312	136.7777709960938	903.2705688476564	-1477.480102539062	288.2323913574219	942.7554931640626	-938.8629150390624	155.6688232421875	853.0123291015625	-880.0581665039062	97.0181884765625	837.59765625	-871.2150268554688	113.5379028320312	822.30810546875	-795.0098876953125	162.6786193847656	862.471923828125	-807.7894897460938	161.2233428955078	845.1463623046875	-759.7299194335938	199.8242950439453	881.695068359375	-746.1150512695312	0.3764350116252899	0.07477729767560962	-0.5624369978904724	0.08323530107736588	0.1380520015954971	-0.1985290050506592	0.06377950310707092	0.02001840062439442	-0.07169529795646667	0.03957299888134003	0.208066001534462	-0.8315479755401611	0.3366590142250061	2.993520021438599	-0.3696219921112059	2.727309942245483	0	0	
